<svg width="653" height="347" viewBox="0 0 653 347" fill="none" xmlns="http://www.w3.org/2000/svg">
<g clip-path="url(#clip0_114_246)">
<path d="M358.77 16.8948L628.631 153.184C646.938 162.43 646.938 188.57 628.631 197.816L358.77 334.105C351.683 337.684 343.317 337.684 336.23 334.105L66.3685 197.816C48.0621 188.57 48.0621 162.43 66.3685 153.184L336.23 16.8948C343.317 13.3155 351.683 13.3155 358.77 16.8948Z" fill="url(#paint0_linear_114_246)" stroke="#BB0A25" stroke-width="20"/>
<path d="M293.997 254.821V257.71H294.026V260.599C294.026 262.14 294.796 262.91 296.337 262.91H297.464V271H293.997C293.227 271 292.466 270.615 291.715 269.844C290.925 270.615 290.145 271 289.374 271H285.907V262.91H287.092C288.633 262.91 289.403 262.14 289.403 260.599V254.821C289.403 254.05 288.633 253.28 287.092 252.509C288.633 251.739 289.403 250.969 289.403 250.198V244.42C289.403 242.879 288.633 242.108 287.092 242.108H285.907V234.019H289.374C290.145 234.019 290.925 234.404 291.715 235.175C292.466 234.404 293.227 234.019 293.997 234.019H296.308L305.554 261.755V254.821C305.554 254.05 304.783 253.28 303.242 252.509C304.783 251.739 305.573 250.969 305.612 250.198V244.42C305.612 242.879 304.841 242.108 303.3 242.108H302.116V234.019H305.583C306.353 234.019 307.133 234.404 307.923 235.175C308.674 234.404 309.435 234.019 310.205 234.019H313.672V242.108H312.546C311.005 242.108 310.234 242.879 310.234 244.42V250.198C310.234 250.969 311.005 251.739 312.546 252.509C311.005 253.28 310.234 254.05 310.234 254.821V260.599C310.234 262.14 311.005 262.91 312.546 262.91H313.672V271H310.205C309.435 271 308.674 270.615 307.923 269.844C307.133 270.615 306.353 271 305.583 271H303.242L293.997 243.264L294.026 247.309H293.997V250.198C293.997 250.969 294.767 251.739 296.308 252.509C294.767 253.28 293.997 254.05 293.997 254.821Z" fill="#FFD515"/>
<path d="M328.147 262.91V271H324.68C323.91 271 323.149 270.615 322.398 269.844C321.608 270.615 320.828 271 320.057 271H316.59V262.91H317.775C319.316 262.91 320.086 262.14 320.086 260.599V254.821C320.086 254.05 319.316 253.28 317.775 252.509C319.316 251.739 320.086 250.969 320.086 250.198V244.42C320.086 242.879 319.316 242.108 317.775 242.108H316.59V234.019H320.057C320.828 234.019 321.608 234.404 322.398 235.175C323.149 234.404 323.91 234.019 324.68 234.019H328.147V242.108H327.02C325.48 242.108 324.709 242.879 324.709 244.42V250.198C324.709 250.969 325.48 251.739 327.02 252.509C325.48 253.28 324.709 254.05 324.709 254.821V260.599C324.709 262.14 325.48 262.91 327.02 262.91H328.147Z" fill="#FFD515"/>
<path d="M347.216 270.307C345.945 270.769 344.404 271 342.593 271C336.43 271 333.348 268.303 333.348 262.91V254.821C333.348 254.05 332.577 253.28 331.036 252.509C332.577 251.739 333.348 250.969 333.348 250.198V242.108C333.348 236.715 336.43 234.019 342.593 234.019C344.404 234.019 345.945 234.25 347.216 234.712V234.019H351.839V247.887H347.216V246.731C347.216 243.649 345.675 242.108 342.593 242.108C339.511 242.108 337.97 243.649 337.97 246.731V250.198C337.97 250.969 338.741 251.739 340.282 252.509C338.741 253.28 337.97 254.05 337.97 254.821V258.288C337.97 261.369 339.511 262.91 342.593 262.91C345.675 262.91 347.216 261.369 347.216 258.288V254.821H343.749C343.749 254.05 342.978 253.28 341.437 252.509C342.978 251.739 343.749 250.969 343.749 250.198H351.839V271H347.216V270.307Z" fill="#FFD515"/>
<path d="M362.846 254.821V260.599C362.846 262.14 363.607 262.91 365.129 262.91V271H362.817C362.047 271 361.286 270.615 360.535 269.844C359.745 270.615 358.965 271 358.195 271H354.728V262.91H355.912C357.453 262.91 358.224 262.14 358.224 260.599V254.821C358.224 254.05 357.453 253.28 355.912 252.509C357.453 251.739 358.224 250.969 358.224 250.198V244.42C358.224 242.879 357.453 242.108 355.912 242.108H354.728V234.019H358.195C358.965 234.019 359.745 234.404 360.535 235.175C361.286 234.404 362.047 234.019 362.817 234.019H365.129V242.108C363.607 242.108 362.846 242.879 362.846 244.42V250.198H372.092V244.42C372.092 242.879 371.302 242.108 369.723 242.108V234.019H372.063C372.833 234.019 373.613 234.404 374.403 235.175C375.154 234.404 375.915 234.019 376.686 234.019H380.153V242.108H379.026C377.485 242.108 376.714 242.879 376.714 244.42V250.198C376.714 250.969 377.485 251.739 379.026 252.509C377.485 253.28 376.714 254.05 376.714 254.821V260.599C376.714 262.14 377.485 262.91 379.026 262.91H380.153V271H376.686C375.915 271 375.154 270.615 374.403 269.844C373.613 270.615 372.833 271 372.063 271H369.723V262.91C371.302 262.91 372.092 262.14 372.092 260.599V254.821H362.846Z" fill="#FFD515"/>
<path d="M400.377 271H396.939C396.149 270.981 395.369 270.596 394.598 269.844C393.828 270.615 393.058 271 392.287 271H388.849L388.82 262.91H389.976C391.497 262.91 392.268 262.14 392.287 260.599V254.792C392.287 254.041 391.517 253.29 389.976 252.538C391.497 251.749 392.268 250.969 392.287 250.198V244.42C392.268 242.879 391.497 242.108 389.976 242.108C388.435 242.108 387.664 242.879 387.664 244.42L387.693 246.731H383.042V234.019H392.316C393.086 234.019 393.857 234.404 394.627 235.175C395.417 234.404 396.188 234.019 396.939 234.019H406.155V246.731H401.533V244.42C401.533 242.879 400.772 242.108 399.25 242.108C397.69 242.108 396.91 243.649 396.91 246.731V250.198C396.929 250.969 397.709 251.739 399.25 252.509C397.709 253.261 396.929 254.031 396.91 254.821V260.599C396.91 262.14 397.68 262.91 399.221 262.91H400.377V271Z" fill="#FFD515"/>
<path d="M160.401 178.605C160.401 185.539 163.868 189.006 170.802 189.006C177.736 189.006 181.203 185.539 181.203 178.605V170.804C181.203 169.071 179.47 167.337 176.003 165.604C179.47 163.87 181.203 162.137 181.203 160.403L181.268 147.402C181.225 143.935 179.47 142.202 176.003 142.202H173.402V124H181.268C182.958 124 184.67 124.867 186.404 126.6C188.224 124.867 189.979 124 191.669 124H199.47V142.202L196.87 142.137C193.403 142.18 191.669 143.935 191.669 147.402L191.604 160.403C191.604 162.137 193.338 163.87 196.805 165.604C193.338 167.337 191.604 169.071 191.604 170.804V189.006C191.604 201.14 184.67 207.208 170.802 207.208C166.728 207.208 163.261 206.687 160.401 205.647V207.208H150V176.005H160.401V178.605Z" fill="#FFD515"/>
<path d="M253.556 176.655L255.441 183.805H255.506C257.196 187.272 258.93 189.006 260.706 189.006H263.242V207.208H255.441C253.707 207.208 251.995 206.341 250.305 204.607C248.528 206.341 246.773 207.208 245.04 207.208H239.839V189.006C243.74 189.006 245.69 188.031 245.69 186.081C245.69 185.431 245.495 184.694 245.105 183.87L245.04 183.805L243.74 178.605H225.538L224.238 183.805H224.303C223.826 184.672 223.588 185.431 223.588 186.081C223.588 188.031 225.538 189.006 229.438 189.006L229.373 207.208H224.238C222.504 207.208 220.792 206.341 219.102 204.607C217.325 206.341 215.57 207.208 213.837 207.208H206.036V189.006H208.701C210.391 189.006 212.125 187.294 213.902 183.87L213.837 183.805L215.722 176.655C214.898 175.615 213.403 174.531 211.236 173.404C214.703 171.671 216.437 169.937 216.437 168.204H217.997L224.238 144.802C224.454 144.369 224.563 143.978 224.563 143.632C224.563 142.678 223.588 142.202 221.637 142.202V124H229.438C231.172 124 232.905 124.867 234.639 126.6C236.372 124.91 238.127 124.043 239.904 124H247.64V142.202C245.69 142.202 244.715 142.678 244.715 143.632C244.715 143.978 244.823 144.369 245.04 144.802L251.28 168.204H252.841C252.841 169.937 254.574 171.671 258.041 173.404C255.874 174.531 254.379 175.615 253.556 176.655ZM241.139 168.204L234.639 142.202L228.138 168.204H241.139Z" fill="#FFD515"/>
<path d="M306.146 152.603C306.146 145.669 302.679 142.202 295.745 142.202C288.811 142.202 285.344 145.669 285.344 152.603V160.403C285.344 162.137 287.077 163.87 290.544 165.604C287.077 167.337 285.344 169.071 285.344 170.804V178.605C285.344 185.539 288.811 189.006 295.745 189.006C302.679 189.006 306.146 185.539 306.146 178.605V176.005H316.547V189.006C316.547 201.14 309.613 207.208 295.745 207.208C281.877 207.208 274.943 201.14 274.943 189.006V170.804C274.943 169.071 273.209 167.337 269.742 165.604C273.209 163.87 274.943 162.137 274.943 160.403V142.202C274.943 130.067 281.877 124 295.745 124C299.819 124 303.286 124.52 306.146 125.56V124H316.547V155.203H306.146V152.603Z" fill="#FFD515"/>
<path d="M359.452 137.001C359.452 128.334 364.652 124 375.053 124V142.202C371.586 142.202 369.853 143.935 369.853 147.402V152.603C369.853 158.236 368.336 162.57 365.302 165.604C368.336 168.637 369.853 172.971 369.853 178.605V183.805C369.853 187.272 371.586 189.006 375.053 189.006L375.118 207.208C364.674 207.208 359.452 202.874 359.452 194.206V178.605C359.452 173.404 355.118 170.804 346.45 170.804C342.983 170.804 341.25 172.538 341.25 176.005V183.805C341.25 187.272 342.983 189.006 346.45 189.006H349.05V207.208H341.25C339.516 207.208 337.783 206.341 336.049 204.607C334.316 206.341 332.582 207.208 330.849 207.208H323.048V189.006H325.648C329.115 189.006 330.849 187.272 330.849 183.805L330.784 170.804C330.784 169.071 329.072 167.337 325.648 165.604C329.115 163.87 330.849 162.137 330.849 160.403V147.402C330.849 143.935 329.982 142.202 328.248 142.202H323.048V124H330.849C332.582 124 334.316 124.867 336.049 126.6C337.783 124.867 339.516 124 341.25 124H349.05V142.202H343.85C342.116 142.202 341.25 143.935 341.25 147.402L341.185 155.203C341.185 158.67 342.94 160.425 346.45 160.468C355.118 160.425 359.452 157.803 359.452 152.603V137.001Z" fill="#FFD515"/>
<path d="M428.489 152.603C428.489 164.694 421.555 170.761 407.686 170.804H405.086C401.619 170.804 399.886 172.538 399.886 176.005V183.805C399.886 187.272 401.619 189.006 405.086 189.006H407.686V207.208H399.886C398.152 207.208 396.419 206.341 394.685 204.607C392.952 206.341 391.218 207.208 389.485 207.208H381.684V189.006H384.284C387.751 189.006 389.485 187.272 389.485 183.805L389.42 170.804C389.42 169.071 387.708 167.337 384.284 165.604C387.751 163.87 389.485 162.137 389.485 160.403V147.402C389.485 143.935 388.618 142.202 386.884 142.202H381.684V124H389.485C391.218 124 392.952 124.867 394.685 126.6C396.419 124.867 399.886 124 405.086 124H407.686C421.555 124 428.489 130.067 428.489 142.202V152.603ZM418.023 152.473C418.023 145.625 414.577 142.202 407.686 142.202H405.086C401.619 142.202 399.886 145.669 399.886 152.603L399.821 155.203C399.821 158.67 401.576 160.425 405.086 160.468C413.71 160.425 418.023 157.825 418.023 152.668V152.473Z" fill="#FFD515"/>
<path d="M486.995 165.604C483.528 167.337 481.794 169.071 481.794 170.804V189.006C481.794 201.14 474.86 207.208 460.992 207.208C447.124 207.208 440.19 201.14 440.19 189.006V170.804C440.19 169.071 438.456 167.337 434.989 165.604C438.456 163.87 440.19 162.137 440.19 160.403V142.202C440.19 130.067 447.124 124 460.992 124C474.86 124 481.794 130.067 481.794 142.202V160.403C481.794 162.137 483.528 163.87 486.995 165.604ZM471.393 160.403V152.603C471.393 145.669 467.926 142.202 460.992 142.202C454.058 142.202 450.591 145.669 450.591 152.603V160.403C450.591 162.137 452.324 163.87 455.791 165.604C452.324 167.337 450.591 169.071 450.591 170.804V178.605C450.591 185.539 454.058 189.006 460.992 189.006C467.926 189.006 471.393 185.539 471.393 178.605V170.804C471.393 169.071 469.66 167.337 466.193 165.604C469.66 163.87 471.393 162.137 471.393 160.403Z" fill="#FFD515"/>
<path d="M525.999 207.208H518.263C516.486 207.164 514.731 206.297 512.997 204.607C511.264 206.341 509.53 207.208 507.797 207.208H500.061L499.996 189.006H502.596C506.02 189.006 507.753 187.272 507.797 183.805V170.739C507.797 169.049 506.063 167.359 502.596 165.669C506.02 163.892 507.753 162.137 507.797 160.403V147.402C507.753 143.935 506.02 142.202 502.596 142.202C499.129 142.202 497.396 143.935 497.396 147.402L497.461 152.603H486.995V124H507.862C509.595 124 511.329 124.867 513.062 126.6C514.839 124.867 516.573 124 518.263 124H539V152.603H528.599V147.402C528.599 143.935 526.887 142.202 523.463 142.202C519.953 142.202 518.198 145.669 518.198 152.603V160.403C518.241 162.137 519.996 163.87 523.463 165.604C519.996 167.294 518.241 169.027 518.198 170.804V183.805C518.198 187.272 519.931 189.006 523.398 189.006H525.999V207.208Z" fill="#FFD515"/>
</g>
<defs>
<linearGradient id="paint0_linear_114_246" x1="347.5" y1="0" x2="347.5" y2="351" gradientUnits="userSpaceOnUse">
<stop stop-color="#6A000D"/>
<stop offset="1" stop-color="#2D0010"/>
</linearGradient>
<clipPath id="clip0_114_246">
<rect width="653" height="347" fill="white"/>
</clipPath>
</defs>
</svg>
